<?xml version="1.0" encoding="utf-8"?>
<!-- Generator: Adobe Illustrator 23.0.5, SVG Export Plug-In . SVG Version: 6.00 Build 0)  -->
<svg version="1.1" xmlns="http://www.w3.org/2000/svg" xmlns:xlink="http://www.w3.org/1999/xlink" x="0px" y="0px"
	 viewBox="0 0 612 792" style="enable-background:new 0 0 612 792;" xml:space="preserve">
<style type="text/css">
	.st0{fill-rule:evenodd;clip-rule:evenodd;fill:#663300;}
	.st1{fill-rule:evenodd;clip-rule:evenodd;fill:#A22900;}
	.st2{fill-rule:evenodd;clip-rule:evenodd;fill:#0C0B0B;}
	.st3{fill-rule:evenodd;clip-rule:evenodd;fill:#070605;}
	.st4{fill-rule:evenodd;clip-rule:evenodd;}
	.st5{display:none;fill-rule:evenodd;clip-rule:evenodd;}
	.st6{fill-rule:evenodd;clip-rule:evenodd;fill:#CC3300;}
	.st7{fill:#D42300;}
	.st8{font-family:'BrushScriptMT';}
	.st9{font-size:37.1025px;}
	.st10{fill-rule:evenodd;clip-rule:evenodd;fill:none;}
	.st11{font-family:'Microsoft-Yi-Baiti';}
	.st12{font-size:18px;}
	.st13{letter-spacing:-2;}
</style>
<g id="Guides_For_Artboard">
</g>
<g id="Layer_1">
	<g>
		<g>
			<polygon class="st0" points="368.88,268.79 368.88,269.47 368.88,270.21 368.68,270.81 368.49,271.48 368.16,272.01 
				367.76,272.53 367.3,272.9 366.77,273.28 366.18,273.2 365.58,273.28 364.92,273.2 364.39,272.9 363.87,272.31 363.54,271.63 
				363.34,271.26 363.21,270.89 363.14,270.44 363.14,269.99 363.27,269.24 363.54,268.57 363.67,268.2 363.93,267.9 364.2,267.6 
				364.59,267.45 365.12,267.08 365.78,266.93 366.37,266.93 367.03,267.15 367.56,267.37 368.09,267.75 368.49,268.2 			"/>
			<polygon class="st1" points="396.79,287.47 399.7,290.98 402.2,295.02 404.31,299.35 406.1,304.13 407.35,309.06 408.27,314.22 
				408.87,319.45 409.13,324.75 322.96,324.9 323.09,324.45 323.09,324.16 322.96,323.78 322.96,323.41 324.61,316.16 
				326.78,309.06 329.49,302.19 332.79,295.84 336.62,289.94 341.17,284.71 346.31,280.22 352.32,276.79 358.13,274.92 
				364.13,274.17 370.14,274.4 376.14,275.59 381.88,277.54 387.36,280.22 392.3,283.51 			"/>
			<polygon class="st2" points="289.37,235.02 289.77,236.15 290.23,237.34 290.63,238.61 290.96,239.96 291.15,241.3 
				291.29,242.72 291.29,244.14 291.29,245.78 291.02,245.93 290.89,246.38 290.89,246.83 290.89,247.28 291.68,247.28 
				292.54,247.35 293.33,247.58 294.12,247.88 294.78,248.17 295.51,248.7 296.1,249.22 296.7,249.89 297.16,250.71 297.62,251.68 
				298.02,252.58 298.35,253.7 298.54,254.75 298.61,255.87 298.48,256.99 298.28,258.18 297.69,259.98 296.89,261.55 
				295.84,262.97 294.72,264.31 293.33,265.43 292.01,266.55 290.63,267.52 289.31,268.57 289.37,269.69 290.82,272.08 
				292.41,274.55 293.86,277.01 295.44,279.55 296.96,282.02 298.48,284.56 300.06,287.02 301.71,289.56 302.63,290.24 
				303.43,291.21 303.95,292.25 304.42,293.52 304.61,294.79 304.81,296.14 304.81,297.56 304.88,299.13 305.47,299.57 
				306.26,299.87 307.85,300.4 308.57,300.62 309.3,300.99 309.96,301.44 310.55,302.26 310.95,302.94 311.54,303.46 312.2,303.83 
				312.99,304.21 313.65,304.51 314.38,305.03 314.91,305.63 315.37,306.6 315.43,307.05 315.5,307.64 315.57,308.17 315.63,308.76 
				314.51,308.91 313.46,309.06 312.47,309.14 311.48,309.29 310.49,309.44 309.56,309.74 308.64,310.11 307.91,310.71 
				308.18,311.3 308.44,312.05 308.64,312.8 308.9,313.62 309.03,314.37 309.23,315.19 309.43,315.86 309.63,316.53 308.57,316.76 
				307.58,316.98 306.53,317.21 305.54,317.43 304.48,317.51 303.43,317.58 302.31,317.58 301.25,317.51 301.05,317.73 
				301.78,319.07 302.63,320.34 303.56,321.47 304.68,322.66 305.74,323.71 306.92,324.83 308.11,325.87 309.3,326.99 
				308.77,328.34 308.18,329.68 307.52,331.1 306.92,332.52 306.13,333.79 305.34,335.14 304.48,336.33 303.62,337.53 303.03,337.6 
				302.57,337.6 302.04,337.45 301.58,337.3 301.05,336.93 300.59,336.63 300.19,336.26 299.8,336.03 299.34,336.18 298.94,336.48 
				298.61,336.86 298.41,337.3 298.15,337.75 297.88,338.28 297.55,338.65 297.29,339.1 296.89,339.47 296.5,339.92 296.1,340.29 
				295.71,340.74 295.24,341.04 294.85,341.34 294.39,341.64 293.99,342.01 293.99,342.46 294.58,342.68 295.24,342.91 
				295.97,342.98 296.7,343.13 297.36,343.21 298.08,343.36 298.68,343.58 299.34,344.03 298.61,348.29 297.88,352.54 
				297.03,356.65 296.17,360.84 295.24,364.95 294.39,369.21 293.53,373.46 292.8,377.95 292.41,378.25 292.01,378.39 
				291.48,378.32 291.02,378.17 290.43,377.87 289.9,377.72 289.37,377.65 288.84,377.8 284.42,376.98 280.07,376.23 275.71,375.41 
				271.36,374.58 267,373.69 262.72,372.94 258.43,372.19 254.2,371.52 254.99,367.49 255.99,363.53 257.11,359.57 258.29,355.68 
				259.48,351.8 260.74,347.91 261.86,344.03 262.98,340.14 263.31,339.77 263.77,339.62 264.23,339.47 264.83,339.54 
				265.36,339.54 265.88,339.77 266.41,339.92 267,340.07 267.14,339.4 267.33,338.87 267.4,338.28 267.47,337.75 267.47,337.08 
				267.53,336.56 267.53,335.96 267.66,335.44 266.54,334.24 265.42,333.05 264.23,331.85 263.24,330.58 262.32,329.09 
				261.73,327.52 261.46,325.72 261.79,323.78 261.99,321.91 262.19,320.27 262.39,318.55 262.58,316.98 262.72,315.26 
				262.72,313.62 262.65,311.83 262.45,310.03 261.66,307.87 261,305.78 260.27,303.61 259.68,301.52 259.09,299.35 258.49,297.26 
				257.9,295.09 257.37,293.08 257.17,293.08 256.78,292.03 256.51,291.06 256.18,290.01 255.99,289.12 255.66,288.22 
				255.32,287.32 254.93,286.43 254.6,285.68 252.88,286.43 251.23,287.25 249.45,287.92 247.74,288.59 245.89,288.97 
				244.11,289.19 242.33,289.12 240.61,288.82 239.55,287.92 238.63,286.95 237.84,285.83 237.25,284.63 236.78,283.21 
				236.52,281.87 236.45,280.45 236.65,279.1 236.52,278.66 236.65,278.13 236.72,277.46 236.72,276.79 236.98,275.89 
				237.25,274.99 237.51,274.1 237.84,273.2 238.17,272.31 238.63,271.63 239.09,270.89 239.82,270.36 238.96,269.17 238.24,267.9 
				237.58,266.48 237.11,265.13 236.72,263.56 236.59,262.07 236.59,260.43 236.85,258.78 237.58,254.82 238.96,251.31 
				240.81,248.1 243.12,245.26 245.69,242.65 248.6,240.33 251.63,238.31 254.86,236.59 256.84,236 259.02,235.55 261.26,235.17 
				263.57,235.1 265.75,235.25 267.86,235.85 269.77,236.89 271.43,238.54 272.74,237.12 274.33,235.85 275.98,234.65 
				277.83,233.68 279.67,232.86 281.65,232.41 283.7,232.26 285.87,232.63 286.34,232.86 286.8,233.08 287.26,233.38 287.72,233.68 
				288.12,233.98 288.51,234.35 288.91,234.65 			"/>
			<polygon class="st3" points="255.99,338.35 254.6,343.06 253.21,347.76 251.89,352.54 250.64,357.4 249.32,362.11 248.07,366.96 
				246.81,371.82 245.63,376.75 244.97,378.25 244.24,379.74 243.45,381.08 242.66,382.5 241.73,383.85 240.88,385.19 
				240.02,386.54 239.29,388.03 238.16,386.01 237.56,387.06 236.9,388.03 236.24,389.15 235.52,390.2 234.92,391.32 234.33,392.44 
				233.93,393.78 232.88,394.38 216.73,397.07 217.32,394.83 218.11,392.66 218.97,390.5 219.96,388.33 220.95,386.09 
				221.94,383.92 222.86,381.68 223.79,379.52 224.38,378.17 225.04,376.9 225.7,375.63 226.42,374.44 227.15,373.09 227.94,371.9 
				228.73,370.7 229.59,369.58 229.06,368.91 228.54,368.31 227.94,367.71 227.35,367.19 226.69,366.67 226.03,366.14 
				225.37,365.54 224.77,365.02 224.64,364.35 224.38,363.98 224.05,363.53 224.05,363.08 226.03,362.11 228.54,358.67 
				231.11,355.16 233.62,351.57 236.19,348.06 238.7,344.48 241.47,341.19 244.37,338.13 247.54,335.29 248.13,334.84 
				248.79,334.54 249.45,334.32 250.24,334.17 250.97,334.09 251.7,334.17 252.42,334.32 253.15,334.69 253.54,334.99 
				253.94,335.36 254.34,335.81 254.73,336.26 254.99,336.71 255.32,337.23 255.66,337.75 			"/>
			<path class="st4" d="M414.48,329.83l-3.76,4.78h-2.84l-4.62,0.07h-5.87l-6.2,0.07l-6.14-0.07h-5.15h-3.56h-1.32l-0.13,1.12
				l-1.19,1.12l-1.12,1.12l-1.12,0.97l-1.12,1.05l-1.19,0.9l-1.19,1.05l-1.19,0.97l-1.12,1.2l0.33,0.45l0.79-0.22l0.93-0.22
				l0.86-0.22h0.99l0.92-0.15h0.92h0.99l0.99,0.22l0.13,0.6l-0.13,0.52l-0.33,0.37l-0.53,0.3l-1.52,0.3l-1.52,0.37l-1.52,0.22
				l-1.39,0.3l-1.52,0.22l-1.45,0.37l-1.39,0.45l-1.32,0.67l-1.78,1.57l-1.78,1.64l-1.85,1.49l-1.78,1.57l-1.98,1.42l-1.98,1.49
				l-2.05,1.57l-2.11,1.64l-0.73,3.66l-0.73,3.66l-0.79,3.59l-0.73,3.59l-0.92,3.44l-0.92,3.51l-0.99,3.44l-1.06,3.44l-0.07,0.37
				l-0.13,0.22l-0.13,0.15l-0.13,0.45l-0.26,0.75l-0.2,0.9l-0.2,0.9l-0.2,0.9l-0.26,0.75l-0.26,0.82l-0.4,0.6l-0.33,0.6l-4.35-0.22
				l-4.03-0.07l-3.96-0.08l-3.76,0.08h-3.83l-3.83,0.15l-3.48-3.53l-4.22,0.15l-1.07,3.38l-3.23-13.67l0.53-4.48l0.79-4.41
				l0.79-4.33l0.92-4.26l0.72-4.41l0.79-4.33l0.59-4.56l0.53-4.48l0.27-0.75l0.33-0.75l0.07-0.37l0.07-0.37v-0.37l0.07-0.37
				l0.86-0.75l1.06-0.6l1.19-0.45l1.19-0.15l1.19-0.15l1.19,0.15l1.12,0.3l1.19,0.52l1.58,1.2l1.19,1.72l0.79,1.94l0.53,2.24
				l0.26,2.24l0.2,2.39l0.2,2.24l0.26,2.24l0.07,2.02l0.2,2.17l0.33,2.09l0.46,2.17l0.53,1.94l0.59,2.02l0.73,1.87l0.86,1.87
				l-0.4,0.37l-0.33,0.45l-0.53,0.3l-0.46,0.3l-0.53,0.22l-0.53,0.3l-0.46,0.3l-0.33,0.45l0.2,1.34l0.26,1.34l0.2,1.34l0.26,1.42
				l0.13,1.34l0.2,1.49l0.07,1.42l0.07,1.57l0.46,0.22l1.52-4.56l1.78-4.18l1.91-4.11l2.05-3.81l2.05-3.88l2.11-3.89l2.05-3.88
				l2.05-4.03l-0.2-1.64l-0.13-1.64l-0.13-1.64v-1.64l-0.07-1.72l0.2-1.64l0.26-1.57l0.46-1.49l0.53-1.27l0.59-1.12l0.59-1.2
				l0.59-1.12l0.53-1.27l0.53-1.2l0.46-1.34l0.4-1.27l-2.51-0.22l-2.51-0.07l-2.57-0.07h-2.51h-2.57h-2.57h-2.57h-2.51l-0.53-0.67
				l-0.46-0.6l-0.53-0.67l-0.53-0.6l-0.53-0.67l-0.53-0.6l-0.46-0.67l-0.33-0.6l0.33-0.22l3.83-0.07h10.36h14.65l17.02,0.07h17.15
				l15.38,0.07l11.41,0.15L414.48,329.83L414.48,329.83z M357.73,335.06l-1.45-0.15l-1.45-0.08h-1.45l-1.45,0.08h-1.45h-1.45
				l-1.45,0.07l-1.45,0.22v0.97l-0.07,0.97l-0.13,0.97l-0.07,0.97l-0.2,0.97v0.97l0.07,1.05l0.26,1.12l0.79-0.6l0.86-0.6l0.86-0.52
				l0.86-0.45l0.79-0.52l0.99-0.37l0.92-0.37l1.12-0.22L357.73,335.06L357.73,335.06z M358.39,339.4l0.79-0.52l0.92-0.52l0.79-0.52
				l0.92-0.52l0.79-0.6l0.79-0.52l0.72-0.6l0.72-0.52l-1.05-0.15l-0.92,0.3l-0.86,0.45l-0.79,0.75l-0.79,0.75l-0.73,0.82l-0.73,0.75
				L358.39,339.4L358.39,339.4z M370.4,334.99l-1.26,0.82l-1.19,0.9l-1.19,0.9l-1.05,0.97l-1.19,0.9l-0.99,0.97l-1.06,0.9
				l-0.86,0.97l1.52-0.67l1.52-0.75l1.45-0.97l1.45-0.9l1.32-1.12l1.39-1.05l1.32-0.97l1.38-0.82L370.4,334.99z"/>
			<path class="st5" d="M233.07,439.01h-4.72l-6-9.37c-0.44,0.01-0.8,0.02-1.09,0.02c-0.11,0-0.23-0.01-0.36-0.01
				c-0.13-0.01-0.26-0.01-0.4-0.01v5.83c0,1.26,0.12,2.04,0.36,2.35c0.33,0.43,0.83,0.64,1.49,0.64h0.7v0.55h-7.59v-0.55h0.66
				c0.75,0,1.28-0.28,1.61-0.83c0.18-0.31,0.28-1.03,0.28-2.16v-12.96c0-1.26-0.12-2.04-0.35-2.35c-0.35-0.44-0.86-0.66-1.53-0.66
				h-0.66v-0.55h6.46c1.88,0,3.27,0.16,4.17,0.46c0.89,0.31,1.64,0.89,2.27,1.72c0.62,0.83,0.93,1.82,0.93,2.98
				c0,1.24-0.35,2.31-1.06,3.22c-0.71,0.9-1.81,1.55-3.3,1.92l3.65,5.75c0.85,1.32,1.57,2.2,2.17,2.64c0.6,0.43,1.38,0.7,2.35,0.82
				V439.01L233.07,439.01z M220.49,428.7c0.17,0,0.3,0.01,0.43,0.01c0.12,0.01,0.22,0.01,0.3,0.01c1.69,0,2.96-0.41,3.82-1.25
				c0.86-0.83,1.29-1.89,1.29-3.16c0-1.25-0.35-2.26-1.04-3.05c-0.69-0.78-1.61-1.18-2.76-1.18c-0.5,0-1.18,0.09-2.04,0.28V428.7
				L220.49,428.7z M235.69,430.56c0,2.03,0.43,3.61,1.3,4.74c0.87,1.14,1.9,1.71,3.07,1.71c0.79,0,1.47-0.24,2.05-0.73
				c0.58-0.48,1.06-1.32,1.46-2.51l0.4,0.29c-0.18,1.35-0.71,2.58-1.59,3.69c-0.87,1.12-1.98,1.67-3.31,1.67
				c-1.44,0-2.67-0.63-3.69-1.9c-1.02-1.27-1.53-2.97-1.53-5.12c0-2.31,0.52-4.12,1.57-5.42c1.05-1.3,2.37-1.95,3.96-1.95
				c1.34,0,2.44,0.5,3.3,1.5c0.86,1,1.29,2.34,1.29,4.01H235.69L235.69,430.56z M235.69,429.72h5.55c-0.05-0.87-0.14-1.49-0.28-1.84
				c-0.22-0.55-0.54-0.99-0.98-1.31c-0.43-0.32-0.88-0.48-1.35-0.48c-0.73,0-1.37,0.32-1.95,0.96
				C236.12,427.68,235.78,428.57,235.69,429.72L235.69,429.72z M253.29,425.06v4.62h-0.42c-0.34-1.45-0.76-2.43-1.29-2.96
				c-0.51-0.53-1.18-0.79-1.98-0.79c-0.61,0-1.1,0.18-1.48,0.55c-0.38,0.37-0.57,0.77-0.57,1.21c0,0.55,0.14,1.02,0.42,1.42
				c0.27,0.4,0.82,0.83,1.66,1.28l1.89,1.07c1.78,0.96,2.66,2.25,2.66,3.86c0,1.22-0.42,2.22-1.24,2.98
				c-0.83,0.76-1.75,1.13-2.77,1.13c-0.73,0-1.56-0.15-2.5-0.46c-0.29-0.1-0.53-0.14-0.71-0.14c-0.19,0-0.35,0.13-0.47,0.38h-0.42
				v-4.83h0.42c0.25,1.38,0.72,2.42,1.41,3.12c0.69,0.7,1.46,1.05,2.31,1.05c0.6,0,1.09-0.2,1.46-0.59c0.38-0.4,0.57-0.89,0.57-1.44
				c0-0.69-0.21-1.26-0.63-1.72c-0.42-0.46-1.26-1.05-2.52-1.76c-1.26-0.71-2.09-1.35-2.48-1.93c-0.39-0.57-0.59-1.27-0.59-2.13
				c0-1.11,0.34-2.05,1.01-2.79c0.67-0.74,1.54-1.12,2.61-1.12c0.48,0,1.05,0.11,1.72,0.33c0.44,0.15,0.74,0.22,0.88,0.22
				c0.14,0,0.25-0.03,0.33-0.1c0.08-0.07,0.18-0.22,0.29-0.45H253.29L253.29,425.06z M259.46,421.01v4.47h2.79v1.03h-2.79v8.78
				c0,0.88,0.11,1.48,0.33,1.78c0.22,0.31,0.51,0.46,0.85,0.46c0.28,0,0.56-0.1,0.83-0.31c0.27-0.2,0.48-0.5,0.63-0.91h0.5
				c-0.3,0.97-0.74,1.7-1.29,2.19c-0.56,0.49-1.13,0.73-1.71,0.73c-0.42,0-0.81-0.13-1.19-0.38c-0.38-0.25-0.66-0.61-0.85-1.07
				c-0.18-0.46-0.27-1.19-0.27-2.17v-9.11h-1.9V426c0.48-0.21,0.96-0.58,1.47-1.1c0.5-0.52,0.95-1.13,1.34-1.84
				c0.21-0.37,0.49-1.05,0.84-2.06H259.46L259.46,421.01z M270.19,437.06c-1.22,1.07-1.99,1.69-2.3,1.86
				c-0.48,0.24-0.98,0.37-1.51,0.37c-0.83,0-1.5-0.32-2.04-0.95c-0.54-0.64-0.8-1.49-0.8-2.54c0-0.66,0.13-1.23,0.39-1.71
				c0.36-0.68,0.97-1.3,1.86-1.89c0.88-0.59,2.35-1.31,4.4-2.17v-0.53c0-1.34-0.19-2.27-0.57-2.77c-0.38-0.5-0.92-0.75-1.65-0.75
				c-0.54,0-0.98,0.16-1.3,0.5c-0.33,0.34-0.5,0.73-0.5,1.16l0.03,0.86c0,0.46-0.1,0.8-0.3,1.05c-0.21,0.24-0.47,0.37-0.8,0.37
				c-0.32,0-0.59-0.13-0.79-0.39c-0.21-0.26-0.31-0.6-0.31-1.05c0-0.84,0.38-1.62,1.15-2.33c0.77-0.71,1.84-1.07,3.23-1.07
				c1.06,0,1.93,0.21,2.61,0.61c0.5,0.31,0.89,0.78,1.13,1.44c0.15,0.43,0.23,1.3,0.23,2.61v4.59c0,1.29,0.02,2.08,0.06,2.37
				c0.04,0.29,0.12,0.49,0.22,0.59c0.1,0.09,0.22,0.14,0.35,0.14c0.14,0,0.26-0.04,0.35-0.11c0.19-0.12,0.54-0.48,1.07-1.07v0.82
				c-0.99,1.47-1.92,2.21-2.81,2.21c-0.42,0-0.76-0.16-1.01-0.5C270.33,438.44,270.2,437.87,270.19,437.06L270.19,437.06z
				 M270.19,436.09v-5.16c-1.31,0.6-2.16,1.02-2.55,1.27c-0.68,0.43-1.17,0.88-1.47,1.36c-0.3,0.48-0.45,0.99-0.45,1.54
				c0,0.71,0.19,1.3,0.56,1.78c0.38,0.47,0.8,0.7,1.29,0.7C268.23,437.57,269.1,437.08,270.19,436.09L270.19,436.09z M285.78,425.47
				v8.19c0,1.57,0.03,2.53,0.1,2.88c0.06,0.36,0.17,0.6,0.32,0.74c0.14,0.13,0.31,0.2,0.49,0.2c0.27,0,0.58-0.09,0.92-0.26
				l0.18,0.53l-3.58,1.67h-0.59v-2.88c-1.02,1.27-1.81,2.06-2.35,2.39c-0.54,0.33-1.11,0.49-1.71,0.49c-0.67,0-1.25-0.22-1.74-0.66
				c-0.49-0.44-0.84-1.01-1.03-1.7c-0.19-0.69-0.29-1.67-0.29-2.93v-6.05c0-0.64-0.06-1.08-0.18-1.33c-0.12-0.25-0.3-0.44-0.54-0.56
				c-0.24-0.13-0.67-0.2-1.3-0.2v-0.53h4.19v9.06c0,1.26,0.19,2.09,0.58,2.49c0.39,0.4,0.86,0.6,1.4,0.6c0.38,0,0.81-0.13,1.29-0.4
				c0.48-0.27,1.03-0.78,1.68-1.53V428c0-0.77-0.12-1.29-0.37-1.56c-0.25-0.27-0.76-0.41-1.54-0.44v-0.53H285.78L285.78,425.47z
				 M292.16,425.06v3.05c1.01-2.04,2.03-3.05,3.08-3.05c0.49,0,0.89,0.17,1.19,0.5c0.31,0.33,0.47,0.72,0.47,1.14
				c0,0.39-0.11,0.72-0.33,0.98c-0.22,0.26-0.49,0.39-0.8,0.39c-0.32,0-0.66-0.17-1.04-0.51c-0.38-0.33-0.65-0.5-0.83-0.5
				c-0.17,0-0.34,0.09-0.52,0.3c-0.39,0.4-0.8,1.06-1.22,1.98v6.5c0,0.75,0.09,1.31,0.26,1.69c0.11,0.27,0.31,0.49,0.59,0.67
				c0.29,0.17,0.7,0.26,1.24,0.26v0.53h-6.11v-0.53c0.6,0,1.05-0.11,1.35-0.33c0.22-0.16,0.37-0.41,0.46-0.75
				c0.04-0.16,0.07-0.63,0.07-1.43v-5.26c0-1.57-0.03-2.51-0.08-2.81c-0.06-0.31-0.16-0.53-0.31-0.66c-0.15-0.13-0.34-0.2-0.56-0.2
				c-0.27,0-0.58,0.08-0.91,0.22l-0.15-0.53l3.62-1.66H292.16L292.16,425.06z M304.34,437.06c-1.22,1.07-1.99,1.69-2.3,1.86
				c-0.48,0.24-0.98,0.37-1.51,0.37c-0.83,0-1.5-0.32-2.04-0.95c-0.54-0.64-0.8-1.49-0.8-2.54c0-0.66,0.13-1.23,0.39-1.71
				c0.36-0.68,0.97-1.3,1.86-1.89c0.88-0.59,2.35-1.31,4.4-2.17v-0.53c0-1.34-0.19-2.27-0.57-2.77c-0.38-0.5-0.92-0.75-1.65-0.75
				c-0.54,0-0.97,0.16-1.3,0.5c-0.33,0.34-0.5,0.73-0.5,1.16l0.03,0.86c0,0.46-0.1,0.8-0.31,1.05c-0.2,0.24-0.47,0.37-0.8,0.37
				c-0.32,0-0.59-0.13-0.79-0.39c-0.21-0.26-0.31-0.6-0.31-1.05c0-0.84,0.38-1.62,1.15-2.33c0.77-0.71,1.84-1.07,3.23-1.07
				c1.06,0,1.93,0.21,2.61,0.61c0.5,0.31,0.89,0.78,1.14,1.44c0.15,0.43,0.23,1.3,0.23,2.61v4.59c0,1.29,0.02,2.08,0.06,2.37
				c0.05,0.29,0.12,0.49,0.22,0.59c0.1,0.09,0.22,0.14,0.35,0.14c0.14,0,0.26-0.04,0.35-0.11c0.19-0.12,0.54-0.48,1.07-1.07v0.82
				c-0.99,1.47-1.92,2.21-2.81,2.21c-0.42,0-0.76-0.16-1.01-0.5C304.48,438.44,304.35,437.87,304.34,437.06L304.34,437.06z
				 M304.34,436.09v-5.16c-1.31,0.6-2.16,1.02-2.55,1.27c-0.68,0.43-1.17,0.88-1.47,1.36c-0.3,0.48-0.45,0.99-0.45,1.54
				c0,0.71,0.19,1.3,0.56,1.78c0.38,0.47,0.8,0.7,1.29,0.7C302.39,437.57,303.26,437.08,304.34,436.09L304.34,436.09z
				 M312.93,427.93c1.41-1.91,2.75-2.87,4.03-2.87c0.65,0,1.21,0.19,1.68,0.55c0.47,0.37,0.85,0.97,1.13,1.82
				c0.18,0.6,0.28,1.52,0.28,2.74v5.77c0,0.85,0.06,1.44,0.19,1.74c0.09,0.24,0.25,0.44,0.46,0.58c0.21,0.14,0.6,0.21,1.18,0.21
				v0.53h-5.93v-0.53h0.26c0.55,0,0.94-0.09,1.16-0.28c0.22-0.19,0.37-0.48,0.46-0.86c0.04-0.14,0.07-0.61,0.07-1.39v-5.55
				c0-1.22-0.15-2.11-0.43-2.67c-0.29-0.56-0.76-0.84-1.43-0.84c-1.04,0-2.07,0.65-3.1,1.93v7.13c0,0.92,0.05,1.49,0.15,1.71
				c0.13,0.28,0.3,0.49,0.51,0.63c0.21,0.13,0.64,0.2,1.29,0.2v0.53h-5.9v-0.53h0.25c0.61,0,1.02-0.18,1.24-0.52
				c0.21-0.35,0.33-1.02,0.33-2.01v-5.02c0-1.63-0.03-2.62-0.1-2.98c-0.07-0.35-0.17-0.6-0.3-0.72c-0.14-0.13-0.32-0.2-0.54-0.2
				c-0.25,0-0.54,0.08-0.88,0.22l-0.2-0.53l3.61-1.66h0.55V427.93L312.93,427.93z M326.3,421.01v4.47h2.79v1.03h-2.79v8.78
				c0,0.88,0.11,1.48,0.33,1.78c0.22,0.31,0.51,0.46,0.85,0.46c0.28,0,0.56-0.1,0.83-0.31c0.27-0.2,0.48-0.5,0.63-0.91h0.5
				c-0.31,0.97-0.74,1.7-1.29,2.19c-0.56,0.49-1.13,0.73-1.71,0.73c-0.41,0-0.81-0.13-1.18-0.38c-0.38-0.25-0.66-0.61-0.85-1.07
				c-0.18-0.46-0.27-1.19-0.27-2.17v-9.11h-1.9V426c0.48-0.21,0.96-0.58,1.47-1.1c0.5-0.52,0.95-1.13,1.34-1.84
				c0.21-0.37,0.49-1.05,0.84-2.06H326.3L326.3,421.01z M351.44,433.46l0.44,0.11l-1.53,5.44h-13.71v-0.55h0.66
				c0.75,0,1.28-0.28,1.61-0.83c0.18-0.32,0.28-1.05,0.28-2.18v-12.94c0-1.26-0.13-2.04-0.38-2.35c-0.33-0.44-0.84-0.66-1.51-0.66
				h-0.66v-0.55h8.01v0.55c-0.94-0.01-1.6,0.08-1.98,0.29c-0.38,0.21-0.64,0.47-0.77,0.79c-0.13,0.31-0.2,1.07-0.2,2.26v12.61
				c0,0.81,0.06,1.38,0.19,1.69c0.11,0.21,0.27,0.36,0.49,0.46c0.22,0.1,0.9,0.15,2.04,0.15h1.28c1.37,0,2.32-0.11,2.87-0.34
				c0.54-0.23,1.04-0.63,1.5-1.2C350.53,435.62,350.98,434.71,351.44,433.46L351.44,433.46z M359.12,425.06
				c1.82,0,3.27,0.78,4.36,2.33c0.93,1.34,1.4,2.87,1.4,4.6c0,1.21-0.26,2.44-0.77,3.67c-0.52,1.24-1.22,2.17-2.12,2.81
				c-0.9,0.64-1.91,0.95-3.02,0.95c-1.8,0-3.23-0.82-4.3-2.44c-0.89-1.37-1.33-2.91-1.33-4.62c0-1.25,0.27-2.48,0.81-3.71
				c0.54-1.23,1.25-2.13,2.14-2.72C357.18,425.36,358.13,425.06,359.12,425.06L359.12,425.06z M358.72,426.02
				c-0.45,0-0.92,0.16-1.39,0.46c-0.47,0.31-0.85,0.86-1.13,1.64c-0.29,0.78-0.43,1.78-0.43,3c0,1.98,0.34,3.68,1.04,5.1
				c0.69,1.43,1.61,2.14,2.74,2.14c0.85,0,1.54-0.39,2.09-1.17c0.54-0.78,0.82-2.14,0.82-4.06c0-2.41-0.45-4.31-1.36-5.69
				C360.47,426.49,359.68,426.02,358.72,426.02L358.72,426.02z M369.84,434.07c-0.73-0.41-1.3-0.97-1.68-1.69
				c-0.4-0.72-0.59-1.52-0.59-2.4c0-1.34,0.45-2.49,1.34-3.46c0.89-0.97,2.04-1.45,3.43-1.45c1.14,0,2.12,0.31,2.95,0.94h2.53
				c0.37,0,0.6,0.01,0.66,0.04c0.06,0.02,0.1,0.06,0.14,0.12c0.05,0.1,0.08,0.26,0.08,0.48c0,0.26-0.02,0.44-0.07,0.53
				c-0.03,0.05-0.08,0.09-0.15,0.12c-0.07,0.03-0.29,0.05-0.66,0.05h-1.54c0.49,0.71,0.72,1.61,0.72,2.72
				c0,1.26-0.43,2.34-1.28,3.24c-0.85,0.9-2,1.35-3.44,1.35c-0.6,0-1.2-0.11-1.82-0.31c-0.38,0.38-0.64,0.71-0.77,0.99
				c-0.14,0.28-0.2,0.52-0.2,0.71c0,0.18,0.07,0.34,0.21,0.49c0.14,0.15,0.42,0.26,0.84,0.34c0.25,0.04,0.87,0.07,1.84,0.11
				c1.79,0.04,2.96,0.11,3.48,0.2c0.81,0.12,1.46,0.46,1.94,1.02c0.48,0.55,0.72,1.23,0.72,2.04c0,1.12-0.46,2.16-1.38,3.12
				c-1.36,1.45-3.14,2.17-5.32,2.17c-1.68,0-3.1-0.43-4.27-1.29c-0.65-0.49-0.97-1-0.97-1.54c0-0.23,0.05-0.47,0.14-0.71
				c0.15-0.36,0.45-0.86,0.91-1.51c0.07-0.09,0.51-0.63,1.33-1.6c-0.44-0.3-0.76-0.58-0.95-0.82c-0.19-0.25-0.28-0.52-0.28-0.83
				c0-0.35,0.12-0.75,0.37-1.22C368.38,435.57,368.95,434.91,369.84,434.07L369.84,434.07z M372.12,425.78
				c-0.66,0-1.19,0.29-1.62,0.87c-0.43,0.58-0.66,1.47-0.66,2.67c0,1.56,0.29,2.76,0.88,3.62c0.45,0.65,1.03,0.97,1.73,0.97
				c0.66,0,1.2-0.27,1.64-0.84c0.43-0.56,0.63-1.45,0.63-2.65c0-1.57-0.3-2.8-0.91-3.68C373.38,426.1,372.82,425.78,372.12,425.78
				L372.12,425.78z M369.72,439.01c-0.41,0.5-0.72,0.97-0.93,1.4c-0.21,0.43-0.32,0.83-0.32,1.21c0,0.46,0.25,0.88,0.76,1.23
				c0.86,0.61,2.13,0.92,3.78,0.92c1.56,0,2.71-0.31,3.46-0.94c0.75-0.62,1.12-1.29,1.12-2c0-0.51-0.22-0.88-0.66-1.1
				c-0.45-0.21-1.35-0.33-2.69-0.36C372.27,439.3,370.77,439.18,369.72,439.01L369.72,439.01z M385.86,425.06
				c1.82,0,3.27,0.78,4.37,2.33c0.93,1.34,1.4,2.87,1.4,4.6c0,1.21-0.26,2.44-0.77,3.67c-0.51,1.24-1.22,2.17-2.11,2.81
				c-0.9,0.64-1.9,0.95-3.02,0.95c-1.8,0-3.23-0.82-4.31-2.44c-0.88-1.37-1.33-2.91-1.33-4.62c0-1.25,0.27-2.48,0.81-3.71
				c0.54-1.23,1.25-2.13,2.14-2.72C383.92,425.36,384.87,425.06,385.86,425.06L385.86,425.06z M385.46,426.02
				c-0.45,0-0.92,0.16-1.39,0.46c-0.47,0.31-0.85,0.86-1.14,1.64c-0.29,0.78-0.43,1.78-0.43,3c0,1.98,0.34,3.68,1.04,5.1
				c0.69,1.43,1.61,2.14,2.74,2.14c0.85,0,1.54-0.39,2.09-1.17c0.54-0.78,0.82-2.14,0.82-4.06c0-2.41-0.45-4.31-1.36-5.69
				C387.21,426.49,386.42,426.02,385.46,426.02z"/>
			<path class="st4" d="M413.13,408c-71.98,0-151-59.44-215.95,0C268.08,367.56,341.15,417.81,413.13,408z"/>
			<path class="st6" d="M195.56,412.29c70.9-28.3,143.97,15.87,215.95,0C339.53,422.1,266.46,371.85,195.56,412.29z"/>
		</g>
		<text transform="matrix(0.9803 0.0119 -0.0121 0.9999 201.4543 442.907)" class="st7 st8 st9">Food Restaurant</text>
		<rect x="245.52" y="470.38" class="st10" width="160" height="19"/>
		<text transform="matrix(1 0 0 1 205.4543 462.3846)" class="st11 st12 st13">T a s t e   i n   E v e r y   B i t e</text>
	</g>
</g>
</svg>
